<?xml version="1.0" encoding="iso-8859-1"?>
<!-- Generator: Adobe Illustrator 19.0.0, SVG Export Plug-In . SVG Version: 6.00 Build 0)  -->
<svg version="1.1" id="Capa_1" xmlns="http://www.w3.org/2000/svg" xmlns:xlink="http://www.w3.org/1999/xlink" x="0px" y="0px"
	 viewBox="0 0 480 480" style="enable-background:new 0 0 480 480;" xml:space="preserve">
<g>
	<g>
		<rect x="232" y="325.352" width="16" height="16"/>
	</g>
</g>
<g>
	<g>
		<path d="M240,293.352c-22.091,0-40,17.909-40,40c0,22.091,17.909,40,40,40c22.091,0,40-17.909,40-40
			C279.974,311.272,262.081,293.378,240,293.352z M240,357.352c-13.255,0-24-10.745-24-24s10.745-24,24-24s24,10.745,24,24
			S253.255,357.352,240,357.352z"/>
	</g>
</g>
<g>
	<g>
		<path d="M472,0H8C3.582,0,0,3.582,0,8v368c0,4.418,3.582,8,8,8h165.04l-1.296,8.504c-0.655,4.37,2.357,8.442,6.726,9.097
			c0.788,0.118,1.59,0.118,2.378-0.001L192,399.92V472c0.001,4.418,3.583,8,8.001,7.999c1.314,0,2.608-0.324,3.767-0.943
			L240,459.712l36.232,19.344c3.898,2.081,8.744,0.608,10.825-3.289c0.619-1.159,0.943-2.453,0.943-3.767v-72.08l11.152,1.696
			c4.369,0.66,8.445-2.347,9.105-6.716c0.12-0.794,0.12-1.602-0.001-2.396L306.96,384H472c4.418,0,8-3.582,8-8V8
			C480,3.582,476.419,0,472,0z M272,458.664l-28.232-15.08c-2.355-1.257-5.181-1.257-7.536,0L208,458.664V397.48l5.8-0.88
			l19.752,26.848c2.615,3.561,7.622,4.328,11.183,1.713c0.654-0.481,1.232-1.058,1.713-1.713L266.2,396.6l5.8,0.88V458.664z
			 M289.864,349.568c-2.381,1.759-3.597,4.688-3.16,7.616l4.104,26.984l-26.976-4.112c-2.946-0.42-5.885,0.809-7.656,3.2
			L240,405.208L223.824,383.2c-1.509-2.049-3.903-3.258-6.448-3.256c-0.404,0.002-0.808,0.031-1.208,0.088l-26.976,4.112
			l4.104-26.984c0.449-2.938-0.768-5.884-3.16-7.648l-21.984-16.184l21.984-16.184c2.39-1.763,3.606-4.704,3.16-7.64l-4.104-26.984
			l26.976,4.112c2.946,0.423,5.887-0.806,7.656-3.2L240,261.496l16.176,21.992c1.77,2.393,4.71,3.622,7.656,3.2l26.976-4.112
			l-4.104,26.984c-0.446,2.936,0.77,5.877,3.16,7.64l21.984,16.184L289.864,349.568z M147.28,336H80v-24c0-4.418-3.582-8-8-8H48V80
			h24c4.418,0,8-3.582,8-8V48h320v24c0,4.418,3.582,8,8,8h24v224h-24c-4.418,0-8,3.582-8,8v24h-67.28
			c0.362-0.84,0.576-1.735,0.632-2.648c-0.013-2.528-1.22-4.901-3.256-6.4l-26.856-19.76l5.016-32.952
			c0.664-4.368-2.339-8.447-6.708-9.111c-0.794-0.121-1.602-0.121-2.396-0.001l-32.952,5.024l-19.752-26.856
			c-2.897-3.561-8.132-4.1-11.693-1.203c-0.441,0.359-0.844,0.762-1.203,1.203L213.8,270.152l-32.952-5.024
			c-4.369-0.66-8.445,2.347-9.105,6.716c-0.12,0.794-0.12,1.602,0.001,2.396l5.016,32.952l-26.856,19.76
			c-2.036,1.499-3.243,3.872-3.256,6.4C146.704,334.265,146.918,335.16,147.28,336z M464,368H304.528l-1.288-8.44l10.272-7.56H408
			c4.418,0,8-3.582,8-8v-24h24c4.418,0,8-3.582,8-8V72c0-4.418-3.582-8-8-8h-24V40c0-4.418-3.582-8-8-8H72c-4.418,0-8,3.582-8,8v24
			H40c-4.418,0-8,3.582-8,8v240c0,4.418,3.582,8,8,8h24v24c0,4.418,3.582,8,8,8h94.488l10.272,7.56l-1.288,8.44H16V16h448V368z"/>
	</g>
</g>
<g>
	<g>
		<path d="M240,64c-17.673,0-32,14.327-32,32s14.327,32,32,32c17.673,0,32-14.327,32-32S257.673,64,240,64z M240,112
			c-8.837,0-16-7.163-16-16s7.163-16,16-16s16,7.163,16,16S248.837,112,240,112z"/>
	</g>
</g>
<g>
	<g>
		<rect x="192" y="144" width="96" height="16"/>
	</g>
</g>
<g>
	<g>
		<rect x="96" y="176" width="288" height="16"/>
	</g>
</g>
<g>
	<g>
		<rect x="96" y="208" width="288" height="16"/>
	</g>
</g>
<g>
	<g>
		<rect x="96" y="272" width="56" height="16"/>
	</g>
</g>
<g>
	<g>
		<rect x="328" y="272" width="56" height="16"/>
	</g>
</g>
<g>
</g>
<g>
</g>
<g>
</g>
<g>
</g>
<g>
</g>
<g>
</g>
<g>
</g>
<g>
</g>
<g>
</g>
<g>
</g>
<g>
</g>
<g>
</g>
<g>
</g>
<g>
</g>
<g>
</g>
</svg>
